<?xml version="1.0" encoding="utf-8"?>
<!-- Generator: Adobe Illustrator 21.0.2, SVG Export Plug-In . SVG Version: 6.00 Build 0)  -->
<svg version="1.1" id="Layer_1" xmlns="http://www.w3.org/2000/svg" xmlns:xlink="http://www.w3.org/1999/xlink" x="0px" y="0px"
	 viewBox="0 0 100 125" style="enable-background:new 0 0 100 125;" xml:space="preserve">
<style type="text/css">
	.st0{fill:none;stroke:#000000;stroke-width:3;stroke-miterlimit:10;}
</style>
<path class="st0" d="M67.6,51.8C66.3,66.6,54,78.7,37.1,78.7S6.5,66.6,6.5,51.8s13.7-26.9,30.6-26.9c0,0,16.6-0.6,12.7,8.7
	s6.3,8.7,6.3,8.7S68.9,38.4,67.6,51.8z"/>
<circle class="st0" cx="39.8" cy="39.5" r="4.9"/>
<circle class="st0" cx="20.1" cy="40.5" r="4.1"/>
<circle class="st0" cx="17" cy="57.1" r="4.1"/>
<circle class="st0" cx="28.2" cy="67.6" r="4.1"/>
<path class="st0" d="M87.3,42.2c1.5-3,1.8,15.8-11,35.4c-3.4,5.2-3.8-1.4-3.8-1.4c0.7-23.1,11.1-38,11-35.4L87.3,42.2z"/>
<path class="st0" d="M83.5,40.8c0,0-5.3-7,4.3-10.9c0,0,2.7-1.4,3.3-4.8c0.6-3.4,6.2,16-3.8,17.2L83.5,40.8z"/>
<line class="st0" x1="79.9" y1="45.5" x2="87.8" y2="48"/>
<circle class="st0" cx="46.2" cy="66.1" r="4.1"/>
</svg>
