<?xml version="1.0" encoding="utf-8"?>
<!-- Generator: Adobe Illustrator 21.0.2, SVG Export Plug-In . SVG Version: 6.00 Build 0)  -->
<svg version="1.1"
	 id="Layer_1" xmlns:cc="http://creativecommons.org/ns#" xmlns:dc="http://purl.org/dc/elements/1.1/" xmlns:inkscape="http://www.inkscape.org/namespaces/inkscape" xmlns:rdf="http://www.w3.org/1999/02/22-rdf-syntax-ns#" xmlns:sodipodi="http://sodipodi.sourceforge.net/DTD/sodipodi-0.dtd" xmlns:svg="http://www.w3.org/2000/svg"
	 xmlns="http://www.w3.org/2000/svg" xmlns:xlink="http://www.w3.org/1999/xlink" x="0px" y="0px" viewBox="0 0 48 60"
	 style="enable-background:new 0 0 48 60;" xml:space="preserve">
<path d="M17,2c-0.6,0-1,0.4-1,1v6c0,0.6,0.4,1,1,1s1-0.4,1-1V3C18,2.4,17.6,2,17,2z M7,3C6.8,3,6.5,3.1,6.3,3.3
	c-0.4,0.4-0.4,1,0,1.4l4,4c0.4,0.4,1,0.4,1.4,0c0.4-0.4,0.4-1,0-1.4l-4-4C7.5,3.1,7.3,3,7,3z M38.6,4c-0.6,0-1.3,0.1-1.9,0.4
	L26.1,8.8c-2.5,1.1-3.8,4-2.7,6.5l4.4,10.6c1.1,2.5,4,3.8,6.5,2.7l10.6-4.4c2.5-1.1,3.8-4,2.7-6.5L43.2,7.1C42.4,5.2,40.6,4,38.6,4z
	 M38.6,6c1.2,0,2.3,0.7,2.7,1.9l4.4,10.6c0.6,1.6-0.1,3.3-1.6,3.9l-10.6,4.4c-1.6,0.6-3.3-0.1-3.9-1.6l-4.4-10.6
	c-0.6-1.6,0.1-3.3,1.6-3.9l10.6-4.4C37.8,6.1,38.2,6,38.6,6z M37.5,10c-0.8,0-1.5,0.7-1.5,1.5s0.7,1.5,1.5,1.5
	c0.8,0,1.5-0.7,1.5-1.5S38.3,10,37.5,10z M6,13c-0.6,0-1,0.4-1,1s0.4,1,1,1h6c0.6,0,1-0.4,1-1s-0.4-1-1-1H6z M30.5,13
	c-0.8,0-1.5,0.7-1.5,1.5s0.7,1.5,1.5,1.5l0,0c0.8,0,1.5-0.7,1.5-1.5l0,0C32,13.7,31.3,13,30.5,13z M40.5,17c-0.8,0-1.5,0.7-1.5,1.5
	s0.7,1.5,1.5,1.5c0.8,0,1.5-0.7,1.5-1.5S41.3,17,40.5,17z M9.4,19c-1.9,0-3.8,1.2-4.6,3.1L0.4,32.7c-1.1,2.5,0.2,5.5,2.7,6.5
	l10.6,4.4c2.5,1.1,5.5-0.2,6.5-2.7l4.4-10.6c1.1-2.5-0.2-5.5-2.7-6.5l-10.6-4.4C10.7,19.1,10,19,9.4,19z M33.5,20
	c-0.8,0-1.5,0.7-1.5,1.5s0.7,1.5,1.5,1.5c0.8,0,1.5-0.7,1.5-1.5S34.3,20,33.5,20z M9.4,21c0.4,0,0.8,0.1,1.2,0.2l10.6,4.4
	c1.6,0.6,2.3,2.4,1.6,3.9l-4.4,10.6c-0.6,1.6-2.4,2.3-3.9,1.6L3.9,37.4c-1.6-0.6-2.3-2.4-1.6-3.9l4.4-10.6C7.1,21.7,8.2,21,9.4,21z
	 M16.5,28c-0.8,0-1.5,0.7-1.5,1.5s0.7,1.5,1.5,1.5c0.8,0,1.5-0.7,1.5-1.5S17.3,28,16.5,28z M8.5,32C7.7,32,7,32.7,7,33.5
	S7.7,35,8.5,35s1.5-0.7,1.5-1.5S9.3,32,8.5,32z M35,33c-0.5,0-1,0.5-1,1c0,0.6,0.4,1,1,1h6c0.6,0,1-0.4,1-1s-0.4-1-1-1H35z M30,38
	c-0.5,0-1,0.5-1,1v6c0,0.6,0.4,1,1,1s1-0.4,1-1v-6C31,38.4,30.6,38,30,38z M36,39c-0.3,0-0.5,0.1-0.7,0.3c-0.4,0.4-0.4,1,0,1.4l0,0
	l0,0l4,4c0.4,0.4,1,0.4,1.4,0c0.4-0.4,0.4-1,0-1.4l-4-4l0,0l0,0C36.5,39.1,36.3,39,36,39z"/>
</svg>
