<?xml version="1.0" encoding="utf-8"?>
<!-- Generator: Adobe Illustrator 21.0.2, SVG Export Plug-In . SVG Version: 6.00 Build 0)  -->
<svg version="1.1" id="Layer_1" xmlns="http://www.w3.org/2000/svg" xmlns:xlink="http://www.w3.org/1999/xlink" x="0px" y="0px"
	 viewBox="0 0 100 125" style="enable-background:new 0 0 100 125;" xml:space="preserve">
<path d="M67.7,35.8c0.2-0.2,0.3-0.5,0.3-0.8V24h2c0.6,0,1-0.4,1-1v-8c0-0.6-0.4-1-1-1H30c-0.6,0-1,0.4-1,1v8c0,0.6,0.4,1,1,1h2v11
	c0,0.3,0.1,0.6,0.3,0.8L47,48.5v1.1L32.4,61.2C32.1,61.4,32,61.7,32,62v12h-2c-0.6,0-1,0.4-1,1v8c0,0.6,0.4,1,1,1h40
	c0.6,0,1-0.4,1-1v-8c0-0.6-0.4-1-1-1h-2V62c0-0.3-0.1-0.6-0.4-0.8L53,49.5v-1.1L67.7,35.8z M31,16h38v6H31V16z M69,82H31v-6h38V82z
	 M51.4,50.8L66,62.5V74H34V62.5l14.6-11.7c0.2-0.2,0.4-0.5,0.4-0.8v-2c0-0.3-0.1-0.6-0.3-0.8L34,34.5V24h32v10.5L51.3,47.2
	C51.1,47.4,51,47.7,51,48v2C51,50.3,51.1,50.6,51.4,50.8z M50.5,44.6v16.8L63,72H37l12.5-10.6V44.6L37,34v-4h26v4L50.5,44.6z"/>
</svg>
