<?xml version="1.0" encoding="utf-8"?>
<!-- Generator: Adobe Illustrator 21.0.2, SVG Export Plug-In . SVG Version: 6.00 Build 0)  -->
<svg version="1.1" id="Layer_1" xmlns="http://www.w3.org/2000/svg" xmlns:xlink="http://www.w3.org/1999/xlink" x="0px" y="0px"
	 viewBox="0 0 100 91.3" style="enable-background:new 0 0 100 91.3;" xml:space="preserve">
<style type="text/css">
	.st0{fill:#5AE288;stroke:#44C156;stroke-miterlimit:10;}
</style>
<rect x="49" y="73.2" class="st0" width="2" height="11.4"/>
<path class="st0" d="M68.4,46.9c-1.8-12.3-8.5-23.8-18.3-31.5h-0.1c-9.8,7.7-16.5,19.2-18.3,31.5c-0.5,3.7-0.7,7.5,0.1,11.1
	c1.8,8.2,8.9,14.5,17.3,15V57.7l-6.3-6.3l1.4-1.4l4.9,4.9V39.6h2v8l3.7-3.7l1.4,1.4L51,50.5v11.7l6.7-6.7l1.4,1.4L51,65v8
	c8.4-0.5,15.5-6.7,17.3-15C69.1,54.4,69,50.6,68.4,46.9z"/>
</svg>
