<?xml version="1.0" encoding="utf-8"?>
<!-- Generator: Adobe Illustrator 21.0.2, SVG Export Plug-In . SVG Version: 6.00 Build 0)  -->
<svg version="1.1" id="Layer_1" xmlns="http://www.w3.org/2000/svg" xmlns:xlink="http://www.w3.org/1999/xlink" x="0px" y="0px"
	 viewBox="0 0 100 125" style="enable-background:new 0 0 100 125;" xml:space="preserve">
<g>
	<path d="M48.3,27.4c-6.1-6.1-16-6.2-22-0.2s-5.9,15.9,0.2,22c3.1,3.1,7.2,4.7,11.2,4.7c3.9,0,7.8-1.5,10.8-4.4
		c2.9-2.9,4.5-6.8,4.4-11C53,34.3,51.3,30.3,48.3,27.4z M47.2,47.9C42,53.2,33.4,53,28,47.7c-5.4-5.4-5.5-13.9-0.2-19.2
		c2.6-2.6,5.9-3.8,9.4-3.8c3.5,0,7.1,1.4,9.8,4.1c2.6,2.6,4,6,4.1,9.6C51.1,42,49.7,45.4,47.2,47.9z"/>
	<path d="M46,40.5c-0.5-0.2-1.1,0.1-1.3,0.6c-0.1,0.2-0.2,0.4-0.3,0.7c-0.2,0.5,0,1.1,0.4,1.3c0.1,0.1,0.3,0.1,0.4,0.1
		c0.4,0,0.7-0.2,0.9-0.6c0.1-0.3,0.3-0.5,0.4-0.8C46.8,41.3,46.6,40.7,46,40.5z"/>
	<path d="M41.8,29.5c-0.5-0.2-1.1,0-1.3,0.4c-0.2,0.5,0,1.1,0.4,1.3c2.5,1.3,4.2,3.8,4.3,6.6c0,0.5,0.5,0.9,1,0.9c0,0,0,0,0.1,0
		c0.6,0,1-0.5,0.9-1.1C47.1,34.2,45,31,41.8,29.5z"/>
	<path d="M62.4,57.7c0.4-0.9,0.5-1.8,0.2-2.8c-0.9-3.5-6-6.5-6.2-6.6h-0.1c1.6-3,2.5-6.5,2.5-10c0-5.7-2.2-11.1-6.3-15.1
		c-4-4-9.4-6.3-15.1-6.3s-11.1,2.2-15.1,6.3C14,31.5,14,45,22.4,53.4c4,4,9.4,6.3,15.1,6.3c3.5,0,6.9-0.9,10-2.5
		c0,0.1,0,0.1,0.1,0.2c2.8,4.1,4.9,6,6.9,6.3c0.2,0,0.4,0,0.6,0c0.8,0,1.6-0.3,2.2-0.6c3.1,4.7,15.7,23,23.2,23l0,0
		c1.2,0,2.5-1.1,3-1.6s1.7-1.8,1.7-3.1C85.2,73.9,66.9,60.8,62.4,57.7z M58.9,61.8c0.8-0.7,1.7-1.5,2.5-2.4c1.1,0.7,2.3,1.7,3.7,2.7
		l-3.6,3.6C60.5,64.2,59.6,62.9,58.9,61.8z M23.8,51.9c-7.6-7.6-7.6-19.8,0-27.4c3.7-3.7,8.5-5.7,13.7-5.7s10,2,13.7,5.7
		s5.7,8.5,5.7,13.7s-2,10-5.7,13.7s-8.5,5.7-13.7,5.7S27.4,55.6,23.8,51.9z M54.8,61.6c-1.4-0.2-3.2-1.9-5.6-5.4c0,0,0,0-0.1,0
		c1.2-0.8,2.4-1.7,3.5-2.8s2-2.2,2.8-3.4l0.1,0.1c1.3,0.7,4.7,3.1,5.3,5.4c0.2,0.6,0.1,1.2-0.2,1.7c-0.8,1.4-1.9,2.4-3.3,3.6
		c-0.1,0-0.1,0.1-0.2,0.1l0,0l0,0C56.1,61.5,55.4,61.7,54.8,61.6z M82.1,83c-0.8,0.8-1.4,1-1.6,1l0,0c-4.4,0-12.3-9.4-17.7-16.8l4-4
		c7.2,5.5,16.4,13.6,16.4,18.1C83.1,81.6,82.8,82.3,82.1,83z"/>
</g>
</svg>
