<?xml version="1.0" encoding="utf-8"?>
<!-- Generator: Adobe Illustrator 21.0.2, SVG Export Plug-In . SVG Version: 6.00 Build 0)  -->
<svg version="1.1" id="Layer_1" xmlns="http://www.w3.org/2000/svg" xmlns:xlink="http://www.w3.org/1999/xlink" x="0px" y="0px"
	 viewBox="0 0 60 75" style="enable-background:new 0 0 60 75;" xml:space="preserve">
<g>
	<g>
		<path d="M55,2.8l-34.1,7c-1,0.1-1.9,0.9-1.9,2v9v2v19.9c-1.7-2-4.2-3.4-7-3.4c-5,0-9,4-9,9s4,9,9,9s9-4,9-9c0-0.2,0-0.3,0-0.5l0,0
			v-23h0.1l33.9-7v18.8c-1.7-2-4.2-3.4-7-3.4c-5,0-9,4-9,9s4,9,9,9s9-4,9-9c0-0.2,0-0.3,0-0.5l0,0v-26v-1v-10
			C57,3.6,56.1,2.8,55,2.8z M12,55.2c-3.9,0-7-3.1-7-7s3.1-7,7-7s7,3.1,7,7S15.9,55.2,12,55.2z M48,49.2c-3.9,0-7-3.1-7-7s3.1-7,7-7
			s7,3.1,7,7S51.9,49.2,48,49.2z M55,14.8v1l-34,7v-2v-9l34-7V14.8L55,14.8z"/>
	</g>
</g>
</svg>
