<?xml version="1.0" encoding="utf-8"?>
<!-- Generator: Adobe Illustrator 21.0.2, SVG Export Plug-In . SVG Version: 6.00 Build 0)  -->
<svg version="1.1" id="Layer_1" xmlns="http://www.w3.org/2000/svg" xmlns:xlink="http://www.w3.org/1999/xlink" x="0px" y="0px"
	 viewBox="0 0 100 125" style="enable-background:new 0 0 100 125;" xml:space="preserve">
<path d="M82.2,50.5c0,17.3-14,31.3-31.3,31.3c-17.3,0-31.3-14-31.3-31.3c0-17.3,14-31.3,31.3-31.3C68.2,19.2,82.2,33.2,82.2,50.5
	L82.2,50.5z M67.1,38.8c0.8,3.6,1.3,7.3,1.3,11H79c-0.1-4.5-1.3-8.9-3.5-12.8h-7C68.2,37.7,67.8,38.4,67.1,38.8z M63.1,33.7
	c-0.4-1-0.9-2-1.4-3c-1.3-2.5-3.2-4.7-5.5-6.4c-1.1-0.8-2.3-1.4-3.7-1.6v12.9h9.6C62.2,34.8,62.6,34.2,63.1,33.7z M68.5,35.5h6.2
	c-3.6-5.7-9.2-10-15.7-11.9c1.8,1.6,3.2,3.4,4.4,5.4c0.7,1.2,1.3,2.5,1.9,3.9C66.8,32.9,68.1,33.9,68.5,35.5z M68.3,64.1h7.2
	c2.2-3.9,3.4-8.3,3.5-12.8H68.4c0,3.7-0.5,7.3-1.3,10.9C67.7,62.6,68.1,63.3,68.3,64.1z M62.1,36.9h-9.6v12.8h13.7
	c-0.1-3.5-0.4-7-1.2-10.4C63.6,39.2,62.4,38.2,62.1,36.9z M61.9,65.5h-9.5v12.9c1.3-0.2,2.6-0.8,3.7-1.6c2.3-1.7,4.2-3.9,5.5-6.4
	c0.5-1,1-2,1.5-3.1C62.6,66.9,62.1,66.2,61.9,65.5z M65.2,67.9c-0.6,1.4-1.2,2.7-2,4c-1.2,2.1-2.7,3.9-4.5,5.5
	c6.6-1.9,12.2-6.2,15.9-11.9h-6.4C67.9,66.9,66.7,67.9,65.2,67.9z M65,61.4c0.7-3.4,1.1-6.8,1.2-10.2H52.5v12.8h9.4
	C62.2,62.6,63.5,61.5,65,61.4z M33.5,47.2c0.2-3,0.6-6,1.3-8.9c0.1-0.5,0.2-0.9,0.4-1.4h-8.8c-2.2,3.9-3.4,8.4-3.5,12.8h8.3
	C31.4,48.5,32.3,47.5,33.5,47.2z M45.6,24.2c-2.3,1.7-4.1,3.9-5.5,6.4c-0.8,1.6-1.6,3.2-2.1,4.8h11.4V22.6
	C48,22.8,46.7,23.4,45.6,24.2z M27.2,35.5h8.4c0.7-2.2,1.7-4.4,2.9-6.5c1.2-2,2.7-3.9,4.4-5.4C36.4,25.5,30.8,29.8,27.2,35.5z
	 M31.3,51.2h-8.4c0.1,4.5,1.3,8.9,3.5,12.8h8.9c-0.1-0.5-0.2-0.9-0.4-1.4c-0.7-3-1.2-6.1-1.4-9.2C32.4,53.1,31.6,52.3,31.3,51.2z
	 M37.6,49.8h11.7V36.9H37.5c-0.2,0.7-0.4,1.5-0.6,2.3c-0.6,2.7-1,5.4-1.2,8.1C36.7,47.8,37.5,48.7,37.6,49.8z M49.3,65.5H38
	c0.6,1.7,1.3,3.3,2.1,4.8c1.4,2.5,3.2,4.7,5.5,6.4c1.1,0.8,2.4,1.4,3.7,1.6C49.3,78.4,49.3,65.5,49.3,65.5z M43,77.5
	c-1.8-1.6-3.3-3.5-4.5-5.5c-1.2-2-2.1-4.2-2.9-6.4h-8.5C30.8,71.3,36.5,75.5,43,77.5z M35.7,53.3c0.1,2.9,0.5,5.7,1.2,8.5
	c0.2,0.8,0.4,1.5,0.6,2.3h11.8V51.2H37.5C37.2,52.1,36.6,52.9,35.7,53.3z"/>
<path d="M93.9,50.5c0,23.7-19.2,42.9-43,42.9c-23.7,0-43-19.2-43-42.9c0-23.7,19.2-43,43-43C74.6,7.6,93.9,26.8,93.9,50.5L93.9,50.5
	z M98.2,50.5C98.2,24.4,77,3.2,50.9,3.2C24.8,3.2,3.6,24.4,3.6,50.5c0,26.1,21.2,47.3,47.3,47.3C77,97.8,98.2,76.6,98.2,50.5
	L98.2,50.5z"/>
</svg>
