<?xml version="1.0" encoding="utf-8"?>
<!-- Generator: Adobe Illustrator 21.0.2, SVG Export Plug-In . SVG Version: 6.00 Build 0)  -->
<svg version="1.1" id="Layer_1" xmlns="http://www.w3.org/2000/svg" xmlns:xlink="http://www.w3.org/1999/xlink" x="0px" y="0px"
	 viewBox="0 0 65 81.2" style="enable-background:new 0 0 65 81.2;" xml:space="preserve">
<g>
	<path d="M4.9,57.1h36.9l-36.9-32C4.9,25.1,4.9,57.1,4.9,57.1z M37.7,55.6h-5.2V53H31v2.5h-3.9V54h-1.5v1.5h-3.9V53h-1.5v2.5h-3.9
		V54h-1.5v1.5H11V53H9.5v2.5H6.4v-3.8h2.5v-1.5H6.4v-3h1.5v-1.5H6.4v-3h2.5v-1.5H6.4v-3h1.5v-1.5H6.4v-3h2.5v-1.5H6.4v-3.7
		L37.7,55.6z"/>
	<path d="M10.7,36.9v13.9h16L10.7,36.9z M12.2,40.1l10.5,9.1H12.2V40.1z"/>
	<path d="M58.5,2.8c-0.6,0-2.3,0.1-2.3,0.1h-0.7v8.5H-0.2v50.9h58.1c4.1,0,7.4-3.3,7.4-7.4c0,0,0,0,0-0.1V9.1
		C65.3,5.5,62.3,2.8,58.5,2.8z M57.9,60.7H1.3V12.8h54.2v35.4l0.2,1.1l0.8-0.2c0.4-0.1,1.1-0.2,1.5-0.2c3.2,0,5.9,2.6,5.9,5.9
		C63.7,58.1,61.1,60.7,57.9,60.7z M63.8,50.4c-1.3-1.8-3.5-2.9-5.9-2.9c-0.3,0-0.6,0-1,0.1V4.3c0.5,0,1.2,0,1.6,0
		c3.1,0,5.3,2,5.3,4.9C63.8,9.2,63.8,50.4,63.8,50.4z"/>
	<path d="M42.7,22.7v25.5c0,1.6,1.3,3,3,3c1.6,0,3-1.3,3-3V22.7l-3-6L42.7,22.7z M44.2,26h3v18.2h-3V26z M45.7,49.7
		c-0.8,0-1.5-0.7-1.5-1.5v-2.6h3v2.6C47.1,49,46.5,49.7,45.7,49.7z M47.1,24.5h-3V23l1.5-3l1.5,3V24.5z"/>
</g>
</svg>
