<?xml version="1.0" encoding="utf-8"?>
<!-- Generator: Adobe Illustrator 21.0.2, SVG Export Plug-In . SVG Version: 6.00 Build 0)  -->
<svg version="1.1" id="Layer_1" xmlns="http://www.w3.org/2000/svg" xmlns:xlink="http://www.w3.org/1999/xlink" x="0px" y="0px"
	 viewBox="0 0 100 125" style="enable-background:new 0 0 100 125;" xml:space="preserve">
<g>
	<path d="M89.5,27.5C86.3,22,77,21,65.2,23.9c-3.3-11.6-8.8-19-15.2-19s-11.9,7.4-15.2,18.9C23,21,13.7,22,10.5,27.5
		c-1.2,2.1-1.5,4.8-0.7,7.8c1.2,4.5,4.6,9.6,9.7,14.7c-5,5.1-8.4,10.2-9.7,14.7c-0.8,3-0.6,5.6,0.7,7.8c2,3.5,6.6,5.2,12.6,5.2
		c3.4,0,7.3-0.5,11.6-1.6C38,87.6,43.6,95,49.9,95c6.4,0,11.9-7.4,15.2-18.9c4.2,1,8.2,1.6,11.6,1.6c6.1,0,10.6-1.7,12.6-5.2
		c1.2-2.1,1.5-4.8,0.7-7.8c-1.2-4.5-4.6-9.6-9.7-14.7c5-5.1,8.4-10.2,9.7-14.7C90.9,32.2,90.7,29.6,89.5,27.5z M50,6.9
		c5.3,0,10.2,6.9,13.2,17.5c-4.2,1.2-8.7,2.8-13.2,4.9c-4.6-2.1-9.1-3.7-13.2-4.9C39.8,13.9,44.7,6.9,50,6.9z M66.6,50
		c0,3.2-0.1,6.2-0.4,9.2c-2.5,1.7-5.1,3.4-7.9,5c-2.8,1.6-5.6,3-8.3,4.3c-2.8-1.3-5.5-2.7-8.3-4.3c-2.8-1.6-5.4-3.2-7.9-5
		c-0.3-3-0.4-6.1-0.4-9.2c0-3.2,0.1-6.2,0.4-9.2c2.5-1.7,5.1-3.4,7.9-5c2.8-1.6,5.6-3,8.3-4.3c2.8,1.3,5.5,2.7,8.3,4.3
		s5.4,3.2,7.9,5C66.5,43.8,66.6,46.8,66.6,50z M68.3,42.3c3.4,2.5,6.5,5.1,9.3,7.7c-2.7,2.6-5.8,5.2-9.3,7.7
		c0.2-2.5,0.3-5.1,0.3-7.7C68.6,47.4,68.5,44.8,68.3,42.3z M65.9,61.8c-0.5,4.2-1.2,8.2-2.1,11.8c-3.6-1-7.4-2.4-11.4-4
		c2.3-1.1,4.6-2.3,6.9-3.6C61.6,64.6,63.8,63.3,65.9,61.8z M47.6,69.6c-3.9,1.7-7.8,3-11.4,4c-0.9-3.6-1.7-7.6-2.1-11.8
		c2.1,1.4,4.3,2.8,6.6,4.1C43,67.3,45.3,68.5,47.6,69.6z M31.7,57.7c-3.4-2.5-6.5-5.1-9.3-7.7c2.7-2.6,5.8-5.2,9.3-7.7
		c-0.2,2.5-0.3,5.1-0.3,7.7C31.4,52.6,31.5,55.2,31.7,57.7z M34.1,38.2c0.5-4.2,1.2-8.2,2.1-11.8c3.6,1,7.4,2.4,11.4,4
		c-2.3,1.1-4.6,2.3-6.9,3.6C38.4,35.4,36.2,36.7,34.1,38.2z M59.3,34.1c-2.3-1.3-4.6-2.5-6.9-3.6c3.9-1.7,7.8-3,11.4-4
		c0.9,3.6,1.7,7.6,2.1,11.8C63.8,36.7,61.6,35.4,59.3,34.1z M12.3,28.5c1.6-2.8,5.5-4.2,10.7-4.2c3.3,0,7.1,0.5,11.2,1.6
		c-1.1,4.2-1.9,8.8-2.3,13.8c-4.1,2.9-7.8,5.9-10.9,8.9c-4.8-4.9-8.1-9.7-9.2-13.8C11.1,32.2,11.3,30.1,12.3,28.5z M12.3,71.5
		c-1-1.7-1.1-3.8-0.5-6.3c1.1-4.1,4.4-9,9.2-13.8c3.1,3,6.8,6,10.9,8.9c0.5,5,1.3,9.6,2.3,13.8C23.5,76.8,14.9,76.1,12.3,71.5z
		 M50,93.1c-5.3,0-10.2-6.9-13.2-17.5c4.2-1.2,8.7-2.8,13.2-4.9c4.6,2.1,9.1,3.7,13.3,4.9C60.2,86.1,55.3,93.1,50,93.1z M87.7,71.5
		c-2.7,4.6-11.2,5.3-21.9,2.6c1.1-4.2,1.9-8.8,2.3-13.8c4.1-2.9,7.8-5.9,10.9-8.9c4.8,4.9,8.1,9.7,9.2,13.8
		C88.9,67.8,88.7,69.9,87.7,71.5z M88.2,34.7c-1.1,4.1-4.4,9-9.2,13.8c-3.1-3-6.8-6-10.9-8.9c-0.5-5-1.3-9.6-2.3-13.8
		c10.8-2.6,19.3-2,21.9,2.6C88.7,30.1,88.9,32.2,88.2,34.7z"/>
	<path d="M50,42.8c-4,0-7.2,3.2-7.2,7.2s3.2,7.2,7.2,7.2s7.2-3.2,7.2-7.2S54,42.8,50,42.8z M50,55.2c-2.9,0-5.2-2.3-5.2-5.2
		s2.3-5.2,5.2-5.2s5.2,2.3,5.2,5.2S52.9,55.2,50,55.2z"/>
</g>
</svg>
