<?xml version="1.0" encoding="utf-8"?>
<!-- Generator: Adobe Illustrator 21.0.2, SVG Export Plug-In . SVG Version: 6.00 Build 0)  -->
<svg version="1.1" id="Layer_1" xmlns="http://www.w3.org/2000/svg" xmlns:xlink="http://www.w3.org/1999/xlink" x="0px" y="0px"
	 viewBox="0 0 100 88.3" style="enable-background:new 0 0 100 88.3;" xml:space="preserve">
<g>
	<g>
		<path d="M48.8,37.2h5.7v-0.6v-1.8H50v-1.2v-6.1h-2.4v6.3V36c0,0.1,0,0.1,0,0.2C47.7,36.7,48.2,37.2,48.8,37.2z"/>
		<circle cx="43.5" cy="28.8" r="1.8"/>
		<circle cx="56.6" cy="28.8" r="1.8"/>
		<path d="M30.3,61.6h-2.4v8.5c0,0.7,0.5,1.2,1.2,1.2h5.7v-2.4h-4.5V61.6z"/>
		<circle cx="23.7" cy="63" r="1.8"/>
		<circle cx="36.9" cy="63" r="1.8"/>
		<path d="M70,49.8c-0.9-4.3-3.2-8.1-6.4-11c1.3-2.3,2-4.9,2-7.6c0-8.6-7-15.6-15.6-15.6s-15.6,7-15.6,15.6c0,2.8,0.7,5.4,2,7.6
			c-3.2,2.8-5.5,6.7-6.4,11c-8.5,0.1-15.4,7.1-15.4,15.6c0,8.6,7,15.6,15.6,15.6c5.7,0,10.7-3.1,13.4-7.6c2,0.7,4.1,1,6.4,1
			c2.2,0,4.4-0.4,6.4-1c2.7,4.6,7.7,7.6,13.4,7.6c8.6,0,15.6-7,15.6-15.6C85.3,56.8,78.5,49.9,70,49.8z M58.6,72.4
			c-0.4-0.7-0.8-1.4-1.1-2.1c-0.6-1.5-1-3.2-1-4.9c0-6.7,5-12.2,11.4-13.1c0.6-0.1,1.2-0.1,1.8-0.1c0.2,0,0.4,0,0.6,0
			c7,0.3,12.6,6.1,12.6,13.2c0,7.3-5.9,13.2-13.2,13.2C65.1,78.6,61,76.1,58.6,72.4z M50,18c7.3,0,13.2,5.9,13.2,13.2
			c0,2.2-0.5,4.3-1.5,6.1c-0.4,0.7-0.8,1.4-1.3,2c-2.4,3.1-6.2,5.1-10.4,5.1c-4.2,0-8-2-10.4-5.1c-0.5-0.6-0.9-1.3-1.3-2
			c-1-1.8-1.5-3.9-1.5-6.1C36.8,23.9,42.7,18,50,18z M41.4,72.4c-2.3,3.7-6.5,6.1-11.1,6.1c-7.3,0-13.2-5.9-13.2-13.2
			c0-7.1,5.6-12.9,12.6-13.2c0.2,0,0.4,0,0.6,0c0.6,0,1.2,0.1,1.8,0.1c6.4,0.9,11.4,6.4,11.4,13.1c0,1.7-0.3,3.4-1,4.9
			C42.2,71,41.8,71.7,41.4,72.4z M50,71.9c-1.8,0-3.6-0.3-5.3-0.8c0.7-1.8,1.1-3.8,1.1-5.8c0-7.8-5.8-14.3-13.4-15.4
			c0.8-3.6,2.7-6.7,5.3-9.1c2.9,3.6,7.3,6,12.2,6c5,0,9.4-2.3,12.2-6c2.6,2.4,4.5,5.6,5.3,9.1C60,51,54.1,57.5,54.1,65.3
			c0,2.1,0.4,4,1.1,5.8C53.6,71.7,51.8,71.9,50,71.9z"/>
		<path d="M69.7,61.6h-0.9h-1.5v3v5.5c0,0.7,0.5,1.2,1.2,1.2h5.7v-2.4h-4.5V61.6z"/>
		<circle cx="63.2" cy="63" r="1.8"/>
		<circle cx="76.3" cy="63" r="1.8"/>
	</g>
</g>
</svg>
