<?xml version="1.0" encoding="utf-8"?>
<!-- Generator: Adobe Illustrator 21.0.2, SVG Export Plug-In . SVG Version: 6.00 Build 0)  -->
<svg version="1.1" id="Layer_1" xmlns="http://www.w3.org/2000/svg" xmlns:xlink="http://www.w3.org/1999/xlink" x="0px" y="0px"
	 viewBox="0 0 100 125" style="enable-background:new 0 0 100 125;" xml:space="preserve">
<style type="text/css">
	.st0{stroke:#231F20;stroke-linecap:round;stroke-linejoin:round;stroke-miterlimit:10;}
	.st1{fill:none;stroke:#231F20;stroke-linecap:round;stroke-linejoin:round;stroke-miterlimit:10;}
</style>
<g>
	<path class="st0" d="M102.7,435.9v-8.8c0-6.6-5.4-12-12-12h-3.2c-6.6,0-12,5.4-12,12v8.8H102.7z"/>
	<path class="st0" d="M94.9,436v-2.2c0-2.8-2.3-5.1-5.1-5.1h-1.3c-2.8,0-5.1,2.3-5.1,5.1v2.2H94.9z"/>
	<path class="st0" d="M92,414.9c0-1.4-1.1-2.5-2.5-2.5h-0.7c-1.4,0-2.5,1.1-2.5,2.5"/>
	<line class="st1" x1="107.6" y1="435.9" x2="96.6" y2="435.9"/>
	<line class="st1" x1="83.6" y1="432.5" x2="94.7" y2="432.5"/>
	<line class="st1" x1="89.1" y1="419" x2="89.1" y2="428.7"/>
	<line class="st1" x1="89.1" y1="415.1" x2="89.1" y2="417.1"/>
</g>
<g>
	<path d="M25.9,75.6c-0.3,0-0.5-0.1-0.7-0.3c-13.5-13.5-13.5-35.4,0-48.9c0.4-0.4,1-0.4,1.4,0s0.4,1,0,1.4
		c-12.7,12.7-12.7,33.4,0,46.1c0.4,0.4,0.4,1,0,1.4C26.4,75.5,26.2,75.6,25.9,75.6z"/>
	<path d="M73.7,75.3c-0.3,0-0.5-0.1-0.7-0.3c-0.4-0.4-0.4-1,0-1.4c12.7-12.7,12.7-33.4,0-46.1c-0.4-0.4-0.4-1,0-1.4s1-0.4,1.4,0
		c13.5,13.5,13.5,35.4,0,48.9C74.2,75.2,73.9,75.3,73.7,75.3z"/>
	<path d="M49.9,76.7C35.6,76.7,24,65.1,24,50.8c0.1-14.3,11.7-25.9,25.9-25.9c14.3,0,25.9,11.6,25.9,25.9c0,7.2-3,14.2-8.2,18.7
		c-0.4,0.4-1,0.3-1.4-0.1c-0.4-0.4-0.3-1,0.1-1.4c4.7-4.1,7.5-10.6,7.5-17.2c0-13.2-10.7-23.9-23.9-23.9c-13,0-23.9,10.9-23.9,23.9
		C26,64,36.7,74.7,49.9,74.7c0.6,0,1,0.4,1,1C50.9,76.3,50.5,76.7,49.9,76.7z"/>
	<path d="M49.9,68c-9.5,0-17.2-7.7-17.2-17.2s7.7-17.2,17.2-17.2c0.6,0,1,0.4,1,1s-0.4,1-1,1c-8.4,0-15.2,6.8-15.2,15.2
		S41.5,66,49.9,66s15.2-6.8,15.2-15.2c0-0.6,0.4-1,1-1s1,0.4,1,1C67.2,60.3,59.4,68,49.9,68z"/>
	<path d="M49.9,59.3c-4.7,0-8.5-3.8-8.5-8.5s3.8-8.5,8.5-8.5s8.5,3.8,8.5,8.5C58.5,55.5,54.6,59.3,49.9,59.3z M49.9,44.3
		c-3.6,0-6.5,2.9-6.5,6.5c0,3.6,2.9,6.5,6.5,6.5c3.6,0,6.6-2.9,6.6-6.5C56.5,47.2,53.5,44.3,49.9,44.3z"/>
</g>
</svg>
