<?xml version="1.0" encoding="utf-8"?>
<!-- Generator: Adobe Illustrator 21.0.2, SVG Export Plug-In . SVG Version: 6.00 Build 0)  -->
<svg version="1.1" id="Layer_1" xmlns="http://www.w3.org/2000/svg" xmlns:xlink="http://www.w3.org/1999/xlink" x="0px" y="0px"
	 viewBox="0 0 1000 1250" style="enable-background:new 0 0 1000 1250;" xml:space="preserve">
<g>
	<path d="M474.9,666.1c-9.4-4.5-19-8.5-28.7-12V631c0-5.5-4.5-10-10-10s-10,4.5-10,10v16.7c-9.2-2.6-18.4-4.8-27.8-6.5v-18.9
		c0-5.5-4.5-10-10-10s-10,4.5-10,10v16c-8.9-1-17.8-1.6-26.8-1.9v-25.4c0-5.5-4.5-10-10-10s-10,4.5-10,10v25.5
		c-9.3,0.3-18.3,1.1-26.8,2.1v-27.7c0-5.5-4.5-10-10-10s-10,4.5-10,10v30.7c-10.1,1.9-19.4,4-27.8,6.3v-17.6c0-5.5-4.5-10-10-10
		s-10,4.5-10,10v23.8c-17.7,6.1-28.1,11.6-29.1,12.1l-5.3,2.8v64.2l13.4-4.8c7-2.5,14-4.8,21-6.9v29.6c0,5.5,4.5,10,10,10
		s10-4.5,10-10v-35.1c9.2-2.3,18.5-4.1,27.8-5.7v21.3c0,5.5,4.5,10,10,10s10-4.5,10-10v-24.1c9-1,17.9-1.7,26.8-2v26.2
		c0,5.5,4.5,10,10,10s10-4.5,10-10v-26.4c9.4,0.2,18.4,0.7,26.8,1.5v36.3c0,5.5,4.5,10,10,10s10-4.5,10-10v-33.8
		c10.3,1.6,19.6,3.5,27.8,5.5v37c0,5.5,4.5,10,10,10s10-4.5,10-10v-31.4c12.6,4.1,19.7,7.4,20,7.6l14.4,7.1v-66.3L474.9,666.1z
		 M222.5,705.1v-23.7c3.3-1.5,8.2-3.6,14.4-5.9v25.3C232.1,702.1,227.3,703.6,222.5,705.1z M256.9,695.6v-26.8
		c8.2-2.4,17.5-4.8,27.8-6.8v28.1C275.5,691.6,266.2,693.4,256.9,695.6z M304.7,687.5v-28.8c8.5-1.1,17.5-1.9,26.8-2.3v29.1
		C322.6,685.9,313.7,686.5,304.7,687.5z M351.6,685.3v-29c9,0.3,18,0.9,26.8,2v28.3C369.9,686,361,685.5,351.6,685.3z M398.4,689
		v-27.5c9.4,1.8,18.6,4.2,27.8,6.9v25.7C417.9,692.3,408.6,690.5,398.4,689z M460.6,704.2c-4-1.5-8.8-3.1-14.4-4.8v-24
		c4.8,1.9,9.6,3.9,14.4,6.1V704.2z"/>
	<path d="M944.5,795.5v-20H644.3c1.2-4.2,2.3-8.4,3.1-12.7l0.2-0.9v-15.8l-0.1-0.8c-0.2-1.2-0.4-2.4-0.7-3.5h229.8v-20H640.7
		c-8.6-21.2-22.7-38.3-37.2-53.6c-2-2.1-4-4.2-6.1-6.3c6.8-1.6,13.5-3.5,20.1-5.6c34.2,26.5,77.1,42.4,123.6,42.4
		c111.4,0,202-90.6,202-202c0-87.9-56.5-162.9-135.1-190.6c-12.9-48.5-38.4-93-74.9-129.4C678.6,122,606,91.9,528.8,91.9
		c-77.2,0-149.8,30.1-204.4,84.7c-39.1,39.1-65.6,87.4-77.5,140C140.1,323,55.3,411.8,55.3,520.1c0,48.1,16.7,92.3,44.7,127.2
		C80.1,663,63.8,679.7,50.7,698c-11.1,15.5-17.7,30.7-19.6,45l-0.1,0.6v12.2l0.2,0.9c6.4,33.5,26.7,57.6,47.8,78.6
		c38.8,38.8,90.3,69.2,153,90.2c35.4,11.9,70.5,17.9,104.2,17.9c73.4,0,137.1-15.9,194.5-48.6c25-14.3,47.6-30.7,67.2-49h150.9v-20
		h-132c8.1-9.8,14.6-19.9,19.6-30.3L944.5,795.5L944.5,795.5z M546.8,692.3c-3-22.5-7.4-40.9-11.3-54.5c8.3,5.4,16.1,11,23.6,16.9
		c2.6,6.2,10.4,26.6,14.6,56.4c4.6,32.6,5.6,83.4-14.9,141.6c-7.9,5.9-16.2,11.6-24.8,17C554.1,796.5,552.3,733.7,546.8,692.3z
		 M136.5,777.3c3.2,30.8,10.7,62.2,22.4,93.8c-10.6-6.2-20.7-12.8-30.3-19.7C103.9,787.8,105,736.7,110.5,705
		c5-29.3,14.4-48,17.4-53.4c8.5-5.9,17.7-11.6,27.5-17.2c-5.4,13-11.1,30.2-15.2,51.1C134.4,714.9,133.2,745.8,136.5,777.3z
		 M176.5,600.8c38.1-41.3,91.9-97.1,143.5-141.5c6.9,7.6,13.4,15.6,19.5,24c-25.3,16.8-36.3,53.9-42.5,81.4
		C255.1,570.5,215.3,582.4,176.5,600.8z M649.5,429.3l8.2-20.4c2.3,4.2,4.5,8.5,6.4,12.9l-22.5,26.9l15.4,12.8l15.2-18.2
		c1.1,3.6,2.1,7.2,3,10.9l-28.3,26.2l13.6,14.7l18.7-17.3c0.4,4.3,0.7,8.6,0.9,13l-31.9,17.1l9.4,17.6l21.8-11.6
		c-0.5,5-1.1,9.9-2,14.7l-34.5,6.4l3.6,19.7l25.8-4.8c-0.9,3-1.9,6-3,9l-32.9,1.5l0.9,20l23.1-1.1c-1.5,2.9-3.1,5.8-4.7,8.7
		l-36.1-1.9l-1,20l24.3,1.3c-6.9,9.1-14.6,17.5-23.1,25.2c-37.3-33.4-60.8-81.8-60.8-135.7c0-53.9,23.5-102.3,60.9-135.7
		c0.1,0.1,0.1,0.1,0.2,0.2l-8.1,38.3l19.6,4.1l5.3-25c2.6,3.1,5.1,6.3,7.5,9.6L631,421.8L649.5,429.3z M539.3,488.6L519,499.8
		l-67.3-47.2c-5.4-15.4-12.7-30-21.4-43.4l6.1-83l99-46.1l81.7,57.3C571.6,372.8,541.7,427.2,539.3,488.6z M490.8,589.9
		c-1.2,0-2.5-0.1-3.7-0.1c-10.5-4.3-21.3-8.2-32.4-11.6c5.5-18.4,8.4-37.9,8.4-58.1c0-8.2-0.5-16.3-1.4-24.2l0,0c0,0,0-0.1-0.1-0.1
		c-0.5-4.4-1.2-8.8-2-13.2l47.4,33.3L490.8,589.9z M437.2,473.6c-17.8-10.5-36-11.2-50.1-9.1c-12.4,1.8-23,6-29.9,9.4
		c-6.8-9.6-14.1-18.8-22-27.4c22.8-18.7,44.7-34.5,64.3-45.2C417.1,422,430.2,446.6,437.2,473.6z M526.4,262.1L429,307.4l-56.3-57.6
		l58.5-71.5l95.2,9.1V262.1z M416.5,323.2l-4.6,61.8c-28.9-32.6-68-56-112.3-64.9l59.4-55.7L416.5,323.2z M312.4,344
		c27.6,8.4,52.4,23,72.9,42.3c-19.9,11.4-41.7,27.4-64.1,45.7c-6.7-6.5-13.7-12.6-21-18.4c7.1-7.5,12.1-15.8,14.9-25
		C320.2,372.1,317,356.1,312.4,344z M350.7,499.9c11.9,19.2,21.9,40.2,29.9,63.1c-6.4-0.7-12.9-1.3-19.4-1.7l-27.9,0l-0.5,0
		c-4.9,0.3-9.7,0.6-14.5,1C323.9,539.1,333.2,511.5,350.7,499.9z M402.6,566.1c-8.9-27.4-20.3-52.5-34.2-75.2
		c5.5-2.4,13.1-5.2,21.7-6.5c20.7-3.1,38.3,3.5,52.4,19.5c0.5,5.4,0.7,10.8,0.7,16.3c0,18.3-2.7,36-7.7,52.7
		C424.7,570.1,413.8,567.9,402.6,566.1z M596.3,641.5c-25.1-7.5-70.3-35.8-86.2-46l17-77.3l12.5-6.9c3.6,50.5,25.9,95.9,59.9,129.3
		C598.5,640.9,597.4,641.2,596.3,641.5z M633.7,643.4c1.7-1.6,3.4-3.2,5.1-4.9c7.4-7.4,14.2-15.3,20.3-23.6l15.2,28.4l17.6-9.4
		l-20.4-38.2c2.2-3.8,4.2-7.8,6.2-11.7l18.7,28l16.6-11.1l-26.2-39.2c0.7-2.2,1.5-4.4,2.1-6.6l20.3,22.9l15-13.3l-29.6-33.4
		c1.1-6.2,1.9-12.6,2.4-19l27.5,16.4l10.2-17.2l-37.3-22.2c-0.2-5.6-0.6-11.1-1.3-16.6l29.9,8.7l5.6-19.2l-39.3-11.4
		c-1.3-5.5-2.8-10.9-4.5-16.3l32.5,5l3.1-19.8l-43.9-6.8c-2.9-6.4-6.2-12.6-9.8-18.7L703,389l-3.2-19.7l-42.5,6.8
		c-2.9-3.9-6-7.7-9.2-11.4l29.2-10.2l-6.6-18.9l-33.6,11.7c29.5-20.6,65.3-32.7,104-32.7c37,0,71.4,11.1,100.2,30.1
		c-1.4,1.2-2.8,2.5-4.2,3.8L800,335.6l-6.6,18.9l28.2,9.8c-3.3,3.7-6.4,7.6-9.4,11.5l-41.2-6.6l-3.2,19.7l32.1,5.2
		c-3.7,6.2-7,12.6-10,19.1l-42.4,6.6l3.1,19.8l31-4.8c-1.7,5.4-3.3,10.9-4.5,16.5l-37.8,11l5.6,19.2l28.5-8.2
		c-0.7,5.6-1.1,11.3-1.2,17L736,511.6l10.2,17.2l26.2-15.6c0.5,6.6,1.4,13.1,2.5,19.5l-28.5,32.1l15,13.3l19.3-21.7
		c0.7,2.3,1.5,4.6,2.3,6.8l-25.2,37.8l16.6,11.1l17.9-26.8c2,4,4.1,7.9,6.3,11.8l-19.7,37l17.6,9.4l14.6-27.3
		c5.9,7.9,12.4,15.4,19.5,22.5c3.5,3.5,7.1,6.8,10.7,10c-28.8,19-63.2,30.1-100.2,30.1C701,678.6,663.8,665.5,633.7,643.4z
		 M923.1,496.6c0,56.9-26.3,107.8-67.4,141.2c-10.9-9.1-20.8-19.4-29.4-30.7l25.6-1.3l-1-20l-37.4,2c-1.7-2.9-3.3-5.8-4.8-8.8
		l24.6,1.1l0.9-20l-34.3-1.6c-1.1-3-2.1-6.1-3-9.2l27.3,5l3.6-19.7l-35.9-6.6c-0.9-5-1.5-10.1-2-15.2l23.2,12.4l9.4-17.6l-33.3-17.8
		c0.2-4.5,0.5-9,1-13.4l20,18.5l13.6-14.7l-29.4-27.2c0.9-3.7,1.9-7.4,3.1-11.1l16.2,19.4l15.4-12.8l-23.4-28
		c2.1-4.5,4.3-9,6.7-13.3l8.8,21.9l18.6-7.5l-14.1-34.9c2.5-3.3,5.1-6.5,7.8-9.7l5.5,26.3l19.6-4.1l-8.3-39.3
		c1.8-1.6,3.6-3.2,5.5-4.7C896.8,388.8,923.1,439.7,923.1,496.6z M785.2,299.5c-14.2-3.2-28.9-4.9-44.1-4.9c-1.3,0-2.5,0-3.8,0
		l-10.6-62.3h26.2C766.6,252.9,777.5,275.5,785.2,299.5z M628.9,131.3c43.1,17.3,80.6,45.5,109.4,81.1h-20.1l-89.3-66L628.9,131.3
		L628.9,131.3z M705.7,228l11.6,68c-30.1,3.6-58.2,13.8-82.8,29.1l-88.2-61.8v-77.6l70.8-23.1L705.7,228z M528.8,111.9
		c27.9,0,54.8,4.3,80.1,12.2v20.1l-73.7,24.1l-101.1-9.7l-9.1-25.8C456.9,119.4,492,111.9,528.8,111.9z M406.8,141.2l8.8,24.8
		L352,243.6l-63.9,60l-10.7-18.5C301.3,222.7,347.8,171.4,406.8,141.2z M272.6,316.6c-1.7-0.1-3.3-0.2-5-0.3c0.5-1.9,1-3.8,1.5-5.8
		L272.6,316.6z M259.2,336.2c9.6,0,19,0.7,28.2,2.2c4.5,7.2,14.3,25.8,8.6,44.5c-2.1,6.8-6.1,13.1-12,18.8
		c-4.7-3.2-9.5-6.3-14.4-9.3c-35.8-21.6-69.9-31.9-92.8-36.7C201.6,343.2,229.6,336.2,259.2,336.2z M150.6,371.7
		c12.9,1.4,59.9,8.2,109.4,38.3c2.2,1.3,4.4,2.7,6.5,4.1c-6.3,3.4-13.5,6.5-21.6,9.3c-6,1.1-46.1,8.6-86.8,20
		c-38.1,10.7-61.8,20.6-76.7,29.4C92.4,431.7,117.2,396.2,150.6,371.7z M75.3,520.1c0-5.4,0.3-10.8,0.7-16.2
		c1.9-4.4,13.7-20.5,87.5-41.3c43-12.1,85.3-19.7,85.7-19.8l0.7-0.1l0.7-0.2c13.2-4.5,24.5-9.8,33.8-15.9
		c7.5,5.7,14.7,11.8,21.5,18.2c-75.6,64.9-154.1,152.3-184,186.5c-2,1.3-4,2.7-6,4C90.5,603.9,75.3,563.8,75.3,520.1z M51.1,753.9
		v-9c1.5-10.9,6.9-22.8,15.9-35.3c8.3-11.6,18.1-22.6,29.5-33.1c-2,7-4,15-5.5,23.9c-5.1,29-7,72.8,8.4,126.8
		c-2.1-2-4.1-3.9-6.1-5.9C75.9,803.9,56.9,783,51.1,753.9z M238.4,906.6c-18.5-6.2-35.9-13.2-52.2-21.1
		c-36.5-84.5-34.7-152.6-26.6-195.2c7.5-39.3,21.4-64.5,25.8-71.7c47-22.2,95.8-34.5,148.1-37.4h26.6
		c55.5,3.7,104.4,17.1,148.9,40.9c3.4,8.5,12.8,34.9,17.9,73.6c5.7,42.9,7,110.2-18.3,188.3c-51.6,26.8-106.8,39.4-172.5,39.4
		C304.7,923.5,271.8,917.8,238.4,906.6z M627.5,760c-4.9,24.7-18.1,47.2-40.5,68.7c-0.1,0.1-0.3,0.2-0.4,0.4
		c12.3-49.6,10.8-92.4,6.6-121.6c-1.4-9.8-3.1-18.5-5-26.3c0.2,0.2,0.5,0.5,0.7,0.7c16,16.9,33.5,37.3,38.5,65.9L627.5,760
		L627.5,760z"/>
</g>
</svg>
