<?xml version="1.0" encoding="utf-8"?>
<!-- Generator: Adobe Illustrator 21.0.2, SVG Export Plug-In . SVG Version: 6.00 Build 0)  -->
<svg version="1.1"
	 id="Layer_1" xmlns:cc="http://creativecommons.org/ns#" xmlns:dc="http://purl.org/dc/elements/1.1/" xmlns:inkscape="http://www.inkscape.org/namespaces/inkscape" xmlns:rdf="http://www.w3.org/1999/02/22-rdf-syntax-ns#" xmlns:sodipodi="http://sodipodi.sourceforge.net/DTD/sodipodi-0.dtd" xmlns:svg="http://www.w3.org/2000/svg"
	 xmlns="http://www.w3.org/2000/svg" xmlns:xlink="http://www.w3.org/1999/xlink" x="0px" y="0px" viewBox="0 0 100 125"
	 style="enable-background:new 0 0 100 125;" xml:space="preserve">
<g transform="translate(0,-952.36218)">
	<path d="M72,960.4c-2.2,0-4,1.8-4,4c0,0.7,0.2,1.4,0.6,2l-18.1,20h-1.2l-19.8-14.2c0.3-0.6,0.5-1.2,0.5-1.8c0-2.2-1.8-4-4-4
		s-4,1.8-4,4s1.8,4,4,4c0.8,0,1.5-0.2,2.2-0.7l17.7,12.7H11c-2.2,0-4,1.8-4,4v50c0,2.2,1.8,4,4,4h78c2.2,0,4-1.8,4-4v-50
		c0-2.2-1.8-4-4-4H53.2L70,967.8c0.6,0.3,1.3,0.5,2,0.5c2.2,0,4-1.8,4-4S74.2,960.4,72,960.4z M72,962.4c1.1,0,2,0.9,2,2s-0.9,2-2,2
		s-2-0.9-2-2S70.9,962.4,72,962.4z M26,968.4c1.1,0,2,0.9,2,2s-0.9,2-2,2s-2-0.9-2-2S24.9,968.4,26,968.4z M11,988.4h78
		c1.1,0,2,0.9,2,2v50c0,1.1-0.9,2-2,2H11c-1.1,0-2-0.9-2-2v-50C9,989.2,9.9,988.4,11,988.4z M16.8,995.4c-0.5,0.1-0.8,0.5-0.8,1v38
		c0,0.6,0.4,1,1,1h49c0.6,0,1-0.4,1-1v-38c0-0.6-0.4-1-1-1H17C16.9,995.4,16.9,995.4,16.8,995.4z M79,995.4c-2.7,0-5,2.3-5,5
		s2.3,5,5,5s5-2.3,5-5C84,997.6,81.7,995.4,79,995.4z M18,997.4h47v36H18V997.4z M79,997.4c1.7,0,3,1.3,3,3s-1.3,3-3,3s-3-1.3-3-3
		S77.3,997.4,79,997.4z M79,1010.4c-2.7,0-5,2.3-5,5s2.3,5,5,5s5-2.3,5-5S81.7,1010.4,79,1010.4z M79,1012.4c1.7,0,3,1.3,3,3
		s-1.3,3-3,3s-3-1.3-3-3S77.3,1012.4,79,1012.4z"/>
</g>
</svg>
